<svg xmlns="http://www.w3.org/2000/svg" viewBox="0 0 68 68"><defs><style>.cls-1{fill:#4c4c4c;}.cls-2{fill:#fff;}</style></defs><title>image_upload</title><g id="レイヤー_2" data-name="レイヤー 2"><g id="レイヤー_6" data-name="レイヤー 6"><rect class="cls-1" width="68" height="68" rx="3" ry="3"/><path class="cls-2" d="M14.56,17.52V46.44H51.13V17.52Zm11.8,5.17a3.64,3.64,0,1,1-3.64,3.64A3.64,3.64,0,0,1,26.36,22.69Zm-8.07,19,5.35-8.16a1.79,1.79,0,0,1,2.84-.2l3.19,3.62,5.78-8.8a1.79,1.79,0,0,1,3,0L47.4,41.68H18.29Z"/><circle class="cls-2" cx="49.94" cy="19.06" r="7.5" transform="translate(-3.5 20.05) rotate(-21.95)"/><path class="cls-1" d="M53,17.66H51.42a.3.3,0,0,1-.3-.3V15.75a.3.3,0,0,0-.3-.3H49.7a.3.3,0,0,0-.3.3v1.61a.3.3,0,0,1-.3.3H47.49a.3.3,0,0,0-.3.3v1.11a.3.3,0,0,0,.3.3H49.1a.3.3,0,0,1,.3.3v1.61a.3.3,0,0,0,.3.3h1.11a.3.3,0,0,0,.3-.3V19.68a.3.3,0,0,1,.3-.3H53a.3.3,0,0,0,.3-.3V18A.3.3,0,0,0,53,17.66Z"/></g></g></svg>