<svg xmlns="http://www.w3.org/2000/svg" viewBox="0 0 23.6 22.46"><defs><style>.cls-1{opacity:0.48;}.cls-2{fill:#fff;}</style></defs><title>timeline</title><g id="レイヤー_2" data-name="レイヤー 2"><g id="ヘッダー"><g class="cls-1"><path class="cls-2" d="M23.21,6.62l-.86-.86a1.33,1.33,0,0,0-1.88,0l-.8.8L22.41,9.3l.8-.8A1.33,1.33,0,0,0,23.21,6.62Z"/><polygon class="cls-2" points="12.17 14.07 12.17 16.8 14.91 16.8 21.66 10.05 18.93 7.31 12.17 14.07"/><rect class="cls-2" x="5.58" y="5.99" width="7.73" height="1.29"/><rect class="cls-2" x="5.58" y="10.71" width="7.73" height="1.29"/><rect class="cls-2" x="5.58" y="15.43" width="4.72" height="1.29"/><path class="cls-2" d="M17.17,20.39a.36.36,0,0,1-.36.36H2.07a.36.36,0,0,1-.36-.36V2.08a.36.36,0,0,1,.36-.36H16.81a.36.36,0,0,1,.36.36V7.25l1.72-1.72V2.08A2.08,2.08,0,0,0,16.81,0H2.07A2.08,2.08,0,0,0,0,2.08V20.39a2.08,2.08,0,0,0,2.07,2.07H16.81a2.08,2.08,0,0,0,2.07-2.07V14.64l-1.72,1.72Z"/></g></g></g></svg>